<svg xmlns="http://www.w3.org/2000/svg" width="1100" height="942" viewBox="0 0 1100 942">
<style>text{font-family:monospace;font-size:14px;dominant-baseline:middle;fill:#111}.label{font-family:sans-serif;font-size:13px}.title{font-size:18px;font-weight:bold}</style>
<rect x="16" y="16" width="1068" height="910" rx="0" fill="#d9f3f7" stroke="#111"/>
<rect x="455" y="48" width="190" height="38" rx="19" fill="#fff" stroke="#111"/>
<text class="title" x="550" y="67" text-anchor="middle">New Icon Types</text>
<line x1="550" y1="86" x2="550" y2="102" stroke="#111" stroke-width="3"/>
<line x1="550" y1="102" x2="550" y2="124" stroke="#111" stroke-width="3"/>
<rect x="455" y="124" width="190" height="58" rx="0" fill="#fff" stroke="#111"/>
<text x="550" y="153" text-anchor="middle">Start the sequence</text>
<line x1="550" y1="182" x2="550" y2="204" stroke="#111" stroke-width="3"/>
<path d="M 455,262 A 58 58 0 0 1 513,204 L 587,204 A 58 58 0 0 1 645,262 Z" fill="#fffdbd" stroke="#111" stroke-width="1.6"/>
<text x="550" y="233" text-anchor="middle">Control block begins</text>
<line x1="550" y1="262" x2="550" y2="284" stroke="#111" stroke-width="3"/>
<polygon points="455,342 455,303 471,303 471,284 629,284 629,303 645,303 645,342" fill="#fff" stroke="#111" stroke-width="1.6"/>
<line x1="455" y1="303" x2="645" y2="303" stroke="#111" stroke-width="1.6"/>
<text x="550" y="313" text-anchor="middle">Configure pipeline</text>
<text x="550" y="331" text-anchor="middle">secondary label here</text>
<line x1="550" y1="342" x2="550" y2="364" stroke="#111" stroke-width="3"/>
<polygon points="455,364 645,364 645,422 455,422 475,393" fill="#fff" stroke="#111" stroke-width="1.6"/>
<text x="560" y="384" text-anchor="middle">Receive data from</text>
<text x="560" y="402" text-anchor="middle">left</text>
<line x1="550" y1="422" x2="550" y2="444" stroke="#111" stroke-width="3"/>
<polygon points="455,444 625,444 645,473 625,502 455,502" fill="#fff" stroke="#111" stroke-width="1.6"/>
<text x="540" y="473" text-anchor="middle">Emit data to right</text>
<line x1="550" y1="502" x2="550" y2="524" stroke="#111" stroke-width="3"/>
<rect x="455" y="524" width="190" height="58" rx="12" fill="#fffde7" stroke="#111"/>
<text x="550" y="553" text-anchor="middle">This is a note</text>
<line x1="550" y1="582" x2="550" y2="604" stroke="#111" stroke-width="3"/>
<polygon points="455,604 645,604 625,662 475,662" fill="#fffdbd" stroke="#111" stroke-width="1.6"/>
<text x="550" y="633" text-anchor="middle">200ms</text>
<line x1="550" y1="662" x2="550" y2="684" stroke="#111" stroke-width="3"/>
<path d="M 513,742 A 58 58 0 0 1 455,684 L 645,684 A 58 58 0 0 1 587,742 Z" fill="#fffdbd" stroke="#111" stroke-width="1.6"/>
<text x="550" y="713" text-anchor="middle">Control block ends</text>
<line x1="550" y1="742" x2="550" y2="764" stroke="#111" stroke-width="3"/>
<rect x="487" y="764" width="126" height="38" rx="19" fill="#fff" stroke="#111"/>
<text x="550" y="783" text-anchor="middle">End</text>
</svg>
